<svg width="1920" height="1080" viewBox="0 0 1920 1080" fill="none" xmlns="http://www.w3.org/2000/svg">
<path d="M1403 601.877C1398.91 603.354 1395.31 604.528 1392.18 605.397C1389.13 606.354 1385.66 606.832 1381.75 606.832C1374.97 606.832 1369.53 605.267 1365.45 602.137C1361.45 598.921 1358.88 594.27 1357.75 588.185H1356.97C1351.32 594.444 1345.23 599.225 1338.71 602.529C1332.28 605.832 1324.5 607.484 1315.37 607.484C1305.72 607.484 1297.77 604.528 1291.51 598.617C1285.34 592.705 1282.25 584.968 1282.25 575.406C1282.25 570.451 1282.95 566.017 1284.34 562.105C1285.73 558.193 1287.82 554.672 1290.6 551.543C1292.77 548.935 1295.64 546.631 1299.2 544.632C1302.77 542.545 1306.11 540.894 1309.24 539.677C1313.16 538.199 1321.07 535.46 1332.98 531.462C1344.97 527.463 1353.06 524.333 1357.23 522.073V509.163C1357.23 508.033 1356.97 505.86 1356.45 502.644C1356.01 499.427 1355.01 496.384 1353.45 493.516C1351.71 490.299 1349.23 487.517 1346.02 485.17C1342.89 482.736 1338.41 481.519 1332.59 481.519C1328.59 481.519 1324.85 482.215 1321.37 483.605C1317.98 484.909 1315.59 486.3 1314.2 487.778C1314.2 489.517 1314.59 492.081 1315.37 495.472C1316.24 498.862 1316.68 501.992 1316.68 504.86C1316.68 507.903 1315.29 510.685 1312.5 513.206C1309.81 515.727 1306.03 516.987 1301.16 516.987C1296.81 516.987 1293.6 515.466 1291.51 512.423C1289.51 509.294 1288.51 505.817 1288.51 501.992C1288.51 497.993 1289.9 494.168 1292.68 490.517C1295.55 486.865 1299.25 483.605 1303.77 480.737C1307.68 478.303 1312.42 476.26 1317.98 474.608C1323.54 472.869 1328.98 472 1334.28 472C1341.58 472 1347.93 472.522 1353.32 473.565C1358.8 474.521 1363.75 476.651 1368.18 479.954C1372.62 483.171 1375.96 487.561 1378.23 493.125C1380.57 498.601 1381.75 505.686 1381.75 514.379C1381.75 526.811 1381.62 537.851 1381.35 547.501C1381.09 557.063 1380.96 567.538 1380.96 578.926C1380.96 582.317 1381.53 585.012 1382.66 587.011C1383.88 589.011 1385.7 590.706 1388.14 592.097C1389.44 592.879 1391.48 593.314 1394.26 593.401C1397.13 593.488 1400.04 593.531 1403 593.531V601.877ZM1357.49 533.026C1350.1 535.2 1343.63 537.329 1338.06 539.416C1332.5 541.502 1327.33 544.11 1322.54 547.24C1318.2 550.195 1314.76 553.716 1312.24 557.802C1309.72 561.801 1308.46 566.582 1308.46 572.146C1308.46 579.361 1310.33 584.664 1314.07 588.054C1317.89 591.445 1322.72 593.14 1328.54 593.14C1334.72 593.14 1340.15 591.662 1344.84 588.706C1349.54 585.664 1353.49 582.1 1356.71 578.014L1357.49 533.026Z" fill="white"/>
<path d="M1147.28 492.212C1147.28 496.645 1146.19 500.601 1144.02 504.078C1141.85 507.468 1138.5 509.163 1133.98 509.163C1129.11 509.163 1125.37 507.903 1122.76 505.382C1120.24 502.861 1118.98 500.079 1118.98 497.036C1118.98 495.124 1119.11 493.385 1119.37 491.82C1119.72 490.256 1120.03 488.691 1120.29 487.126C1116.2 487.126 1111.42 488.778 1105.94 492.081C1100.47 495.385 1095.82 500.079 1091.99 506.164V581.013C1091.99 584.055 1092.56 586.533 1093.69 588.445C1094.9 590.358 1096.77 591.792 1099.29 592.749C1101.47 593.618 1104.25 594.27 1107.64 594.705C1111.12 595.139 1114.11 595.444 1116.64 595.617V604.224H1048.83V595.617C1050.83 595.444 1052.87 595.27 1054.96 595.096C1057.13 594.922 1059 594.574 1060.56 594.053C1063 593.27 1064.78 591.923 1065.91 590.01C1067.13 588.011 1067.74 585.446 1067.74 582.317V502.904C1067.74 500.209 1067.08 497.558 1065.78 494.95C1064.56 492.342 1062.82 490.256 1060.56 488.691C1058.91 487.648 1056.96 486.909 1054.7 486.474C1052.44 485.952 1050 485.605 1047.39 485.431V476.955L1090.17 474.086L1091.99 475.912V494.037H1092.64C1098.03 486.996 1104.03 481.649 1110.64 477.998C1117.24 474.347 1123.29 472.521 1128.76 472.521C1134.24 472.521 1138.67 474.304 1142.06 477.868C1145.54 481.432 1147.28 486.213 1147.28 492.212Z" fill="white"/>
<path d="M910.204 601.877L868.347 604.745L866.391 602.92V586.62H865.608C863.522 588.793 861.175 591.141 858.567 593.662C855.959 596.096 852.96 598.312 849.569 600.312C845.657 602.659 841.876 604.441 838.225 605.658C834.573 606.875 829.401 607.484 822.707 607.484C811.319 607.484 802.626 603.789 796.628 596.4C790.716 588.924 787.761 578.101 787.761 563.931V502.383C787.761 499.253 787.152 496.645 785.935 494.559C784.805 492.386 783.11 490.517 780.849 488.952C779.285 487.909 777.329 487.17 774.982 486.735C772.634 486.213 770.157 485.866 767.549 485.692V477.216L810.45 474.086L812.406 475.912V565.235C812.406 574.536 814.492 581.535 818.665 586.229C822.838 590.923 827.836 593.27 833.661 593.27C838.442 593.27 842.702 592.531 846.44 591.054C850.178 589.576 853.307 587.837 855.828 585.838C858.176 584.012 860.218 582.1 861.957 580.1C863.783 578.014 865.174 576.101 866.13 574.363V501.47C866.13 498.601 865.521 496.08 864.304 493.907C863.087 491.647 861.392 489.734 859.219 488.169C857.654 487.126 855.307 486.518 852.177 486.344C849.135 486.083 845.701 485.866 841.876 485.692V477.216L888.558 474.086L890.514 475.912V578.014C890.514 580.969 891.123 583.49 892.34 585.577C893.557 587.663 895.252 589.445 897.425 590.923C898.99 591.879 900.859 592.531 903.033 592.879C905.206 593.14 907.596 593.314 910.204 593.401V601.877Z" fill="white"/>
<path d="M636.749 601.877C632.663 603.354 629.055 604.528 625.926 605.397C622.883 606.354 619.406 606.832 615.494 606.832C608.713 606.832 603.28 605.267 599.194 602.137C595.195 598.921 592.631 594.27 591.501 588.185H590.718C585.068 594.444 578.982 599.225 572.462 602.529C566.029 605.832 558.249 607.484 549.121 607.484C539.472 607.484 531.517 604.528 525.258 598.617C519.086 592.705 516 584.968 516 575.406C516 570.451 516.695 566.017 518.086 562.105C519.477 558.193 521.564 554.672 524.345 551.543C526.519 548.935 529.388 546.631 532.952 544.632C536.516 542.545 539.863 540.894 542.992 539.677C546.904 538.199 554.815 535.46 566.725 531.462C578.722 527.463 586.806 524.333 590.979 522.073V509.163C590.979 508.033 590.718 505.86 590.197 502.644C589.762 499.427 588.762 496.384 587.197 493.516C585.459 490.299 582.981 487.517 579.765 485.17C576.635 482.736 572.158 481.519 566.334 481.519C562.335 481.519 558.597 482.215 555.119 483.605C551.729 484.909 549.338 486.3 547.948 487.778C547.948 489.517 548.339 492.081 549.121 495.472C549.99 498.862 550.425 501.992 550.425 504.86C550.425 507.903 549.034 510.685 546.252 513.206C543.557 515.727 539.776 516.987 534.908 516.987C530.561 516.987 527.345 515.466 525.258 512.423C523.259 509.294 522.259 505.817 522.259 501.992C522.259 497.993 523.65 494.168 526.432 490.517C529.301 486.865 532.995 483.605 537.516 480.737C541.428 478.303 546.165 476.26 551.729 474.608C557.293 472.869 562.726 472 568.029 472C575.331 472 581.677 472.522 587.067 473.565C592.544 474.521 597.499 476.651 601.932 479.954C606.366 483.171 609.713 487.561 611.973 493.125C614.32 498.601 615.494 505.686 615.494 514.379C615.494 526.811 615.363 537.851 615.103 547.501C614.842 557.063 614.711 567.538 614.711 578.926C614.711 582.317 615.276 585.012 616.407 587.011C617.624 589.011 619.449 590.706 621.883 592.097C623.187 592.879 625.23 593.314 628.012 593.401C630.881 593.488 633.793 593.531 636.749 593.531V601.877ZM591.24 533.026C583.851 535.2 577.374 537.329 571.81 539.416C566.247 541.502 561.074 544.11 556.293 547.24C551.946 550.195 548.513 553.716 545.992 557.802C543.471 561.801 542.21 566.582 542.21 572.146C542.21 579.361 544.079 584.664 547.817 588.054C551.642 591.445 556.467 593.14 562.291 593.14C568.464 593.14 573.897 591.662 578.591 588.706C583.285 585.664 587.241 582.1 590.457 578.014L591.24 533.026Z" fill="white"/>
</svg>
